<svg width="120" height="120" viewBox="0 0 120 120" fill="none" xmlns="http://www.w3.org/2000/svg">
<path d="M61.9978 0.453865C61.7908 0.646528 61.5377 0.887357 61.4303 0.999744C61.3229 1.11213 60.5483 1.86673 59.7047 2.67752C58.8611 3.48831 57.7951 4.51584 57.3273 4.96539C56.8671 5.41494 56.2919 5.96082 56.0619 6.18559C55.8318 6.40234 55.387 6.83583 55.0649 7.14891C54.7504 7.46198 54.3363 7.86337 54.1446 8.03195C53.9528 8.20053 53.7151 8.43333 53.6077 8.54571C53.3163 8.84274 52.442 9.69366 51.583 10.5125C51.1612 10.9058 50.7471 11.3072 50.6627 11.3955C50.5707 11.4838 50.3406 11.7006 50.1566 11.8692C49.9648 12.0458 49.5124 12.4793 49.1519 12.8325C48.7915 13.1937 48.1396 13.8279 47.7024 14.2453C47.2653 14.6628 46.8358 15.0802 46.7515 15.1685C46.6594 15.2568 46.414 15.4896 46.2069 15.6823C45.9922 15.883 45.4247 16.4288 44.9415 16.8944C44.4584 17.3681 43.1316 18.6525 41.9889 19.7443C40.2096 21.4541 39.1973 22.4255 38.277 23.3165C38.1619 23.4289 37.6558 23.9186 37.1496 24.4083C36.6511 24.898 36.0836 25.4358 35.8919 25.6125C35.7078 25.781 35.4777 25.9978 35.3934 26.0861C35.3013 26.1744 34.8872 26.5677 34.4807 26.9691C34.0666 27.3625 33.5988 27.82 33.4377 27.9726C33.2843 28.1251 32.8319 28.5586 32.4331 28.9359C31.7658 29.5701 31.3747 29.9474 30.1783 31.1194C29.9252 31.3683 29.6415 31.6412 29.5571 31.7215C29.4651 31.8018 29.0203 32.2272 28.5601 32.6687C28.1076 33.1103 27.4864 33.7043 27.1873 33.9933C26.8882 34.2823 26.2363 34.9084 25.7378 35.3981C25.2393 35.8798 24.7025 36.3855 24.5568 36.522C24.4034 36.6504 24.1733 36.8672 24.0429 37.0037C23.6595 37.389 22.7699 38.256 22.3174 38.6895C22.0873 38.9062 21.6502 39.3236 21.3511 39.6126C19.5335 41.3787 18.9429 41.9487 18.6362 42.2216C18.4444 42.3982 18.015 42.8157 17.6775 43.1528C17.3401 43.49 16.9106 43.9074 16.7189 44.076C16.5348 44.2526 16.274 44.4934 16.1437 44.6299C16.0133 44.7583 15.5608 45.1918 15.1467 45.5932C14.7325 45.9866 14.2801 46.4201 14.1573 46.5405C14.027 46.6689 13.5745 47.1024 13.1527 47.5038C12.3014 48.3226 11.3734 49.2217 11.197 49.4063C11.1357 49.4706 10.9133 49.6873 10.6985 49.88C10.4915 50.0807 9.91628 50.6265 9.43312 51.0921C8.94996 51.5658 8.068 52.4167 7.47747 52.9786C6.88694 53.5406 6.21205 54.1908 5.98198 54.4156C4.99265 55.3709 4.50949 55.8365 3.64287 56.6794C3.1367 57.1691 2.56918 57.7069 2.37745 57.8835C2.19339 58.0521 1.93264 58.301 1.80226 58.4374C1.67189 58.5659 1.21173 59.0154 0.782259 59.4328L0 60.1874V90.1144V120.049L0.176392 120.09C0.268422 120.114 5.3301 120.122 11.4271 120.114L22.5091 120.09L22.8159 119.913C22.9846 119.817 23.6595 119.463 24.3114 119.134C25.9833 118.275 26.9419 117.721 28.0923 116.943C28.5064 116.662 28.8745 116.437 28.9129 116.437C28.9589 116.437 28.9896 116.405 28.9896 116.373C28.9896 116.333 29.0816 116.252 29.2043 116.188C29.3194 116.124 29.4267 116.052 29.4497 116.028C29.4727 116.004 29.7105 115.827 29.9866 115.634C30.7918 115.072 32.9852 113.298 33.361 112.905C33.384 112.881 33.7291 112.56 34.1279 112.182C35.8995 110.529 38.277 107.751 39.4964 105.921C39.5961 105.768 39.7035 105.624 39.7265 105.6C39.7495 105.576 39.8032 105.503 39.8415 105.431C39.8875 105.359 40.1636 104.925 40.455 104.468C41.0609 103.513 41.0149 103.601 41.6591 102.469C42.265 101.409 42.4184 101.112 43.0856 99.7797C43.2543 99.4425 43.8065 98.2143 44.0979 97.54C44.397 96.8416 45.2866 94.4975 45.4017 94.1202C45.4554 93.9195 45.532 93.7269 45.5704 93.6867C45.6011 93.6386 45.6317 93.5262 45.6317 93.4299C45.6317 93.3255 45.6701 93.2211 45.7084 93.1971C45.7545 93.173 45.7851 93.0766 45.7851 92.9883C45.7851 92.9081 45.8158 92.7716 45.8542 92.6913C45.8925 92.6191 45.9692 92.3943 46.0152 92.1936C46.0689 91.9929 46.1379 91.7601 46.1686 91.6718C46.1993 91.5835 46.2683 91.3507 46.322 91.15C46.3757 90.9493 46.4447 90.7085 46.483 90.6041C46.5214 90.4998 46.5521 90.3312 46.5521 90.2268C46.5521 90.1225 46.5904 90.0101 46.6287 89.986C46.6748 89.9619 46.7054 89.8576 46.7054 89.7693C46.7054 89.6729 46.7361 89.4883 46.7821 89.3518C46.8512 89.127 47.0736 88.1316 47.2423 87.3369C47.2806 87.1603 47.342 86.8552 47.388 86.6545C47.549 85.924 47.8865 83.893 48.0169 82.9217C48.431 79.7749 48.5384 78.2095 48.5997 74.5328C48.6227 72.6784 48.6074 71.2014 48.5537 70.519C48.5077 69.925 48.454 69.1623 48.431 68.8252L48.385 68.2231L49.474 67.2598C50.0722 66.738 50.6321 66.2403 50.7241 66.16C50.8085 66.0797 51.0539 65.863 51.2609 65.6783C51.468 65.4937 51.6751 65.301 51.7211 65.2609C51.7671 65.2127 51.9972 65.0201 52.2273 64.8194C52.4573 64.6187 52.7488 64.3618 52.8791 64.2414C53.1629 63.9765 53.3853 63.7758 53.8378 63.3744C54.0295 63.2058 54.2596 62.9971 54.3516 62.9168C54.436 62.8366 54.6661 62.6439 54.8425 62.4914C55.1339 62.2425 56.522 61.0063 57.1739 60.4122C57.3043 60.2998 57.7184 59.9306 58.0942 59.6014C58.47 59.2723 58.9148 58.8789 59.0682 58.7264C59.2292 58.5739 59.4363 58.3973 59.5283 58.3331C59.628 58.2608 59.7201 58.1805 59.7431 58.1565C59.7661 58.1324 60.1649 57.7711 60.625 57.3617C61.0929 56.9523 61.553 56.5349 61.6604 56.4385C61.7677 56.3502 62.0745 56.0693 62.3506 55.8284C62.619 55.5876 62.8875 55.3468 62.9335 55.3066C62.9795 55.2585 63.2019 55.0658 63.4243 54.8651C64.3369 54.0624 65.4566 53.0669 65.495 53.0268C65.7634 52.7137 66.5227 52.1277 66.607 52.1678C66.7067 52.208 66.7221 53.7573 66.699 64.418C66.6837 76.5718 66.6837 76.628 66.8371 76.6682C66.9215 76.6842 68.5473 76.6922 70.4416 76.6842L73.8928 76.6601L73.9081 61.0865L73.9234 45.5129L73.5246 45.1678C73.3022 44.9831 73.0261 44.7262 72.8958 44.6058C72.6964 44.4132 71.6994 43.49 69.9891 41.9085C69.6977 41.6356 69.4216 41.3787 69.3756 41.3386C69.3296 41.2904 69.1685 41.1539 69.0228 41.0255C68.716 40.7606 67.8187 39.9337 67.1822 39.3317C66.9521 39.1069 66.4996 38.6895 66.1852 38.4085C65.8708 38.1195 65.5563 37.8305 65.495 37.7663C65.4336 37.694 65.2572 37.5415 65.1115 37.4131C64.9658 37.2927 64.6897 37.0358 64.498 36.8511C64.3063 36.6745 63.9305 36.3213 63.6544 36.0644C63.3783 35.8156 63.0025 35.4704 62.8184 35.2857L62.481 34.9646L59.7507 37.7101C58.2476 39.2113 56.6217 40.8489 56.1386 41.3386C55.6554 41.8283 54.9115 42.5668 54.4973 42.9842C54.0755 43.4017 53.2626 44.2205 52.6951 44.7905C52.1199 45.3684 51.376 46.107 51.0462 46.4361C50.7088 46.7653 50.2563 47.2148 50.0415 47.4396C49.8268 47.6563 48.9985 48.4912 48.2009 49.2859C47.411 50.0807 46.5597 50.9316 46.322 51.1724C46.0842 51.4132 45.2713 52.224 44.5197 52.9786C43.7681 53.7252 42.9552 54.544 42.7175 54.7849C42.2036 55.3066 39.6114 57.9076 39.1129 58.3973C38.3844 59.1278 35.7308 61.7769 34.7415 62.7723C32.1033 65.4134 30.209 67.316 29.6875 67.8297C29.373 68.1428 28.9359 68.5683 28.7212 68.7931C28.4988 69.0098 27.8775 69.644 27.333 70.1979C26.7885 70.7518 26.0753 71.4663 25.7455 71.7793L25.1473 72.3654H16.6728C9.94695 72.3654 8.20605 72.3413 8.20605 72.261C8.20605 72.2128 10.9286 69.3068 14.2494 65.8068C22.9232 56.6713 26.5738 52.8261 42.4107 36.1608C50.1949 27.9726 57.8718 19.8888 59.4747 18.1949C61.0775 16.5091 62.435 15.1284 62.4887 15.1284C62.5423 15.1284 62.7878 15.3371 63.0255 15.602C63.2632 15.8589 64.3063 16.9346 65.3416 17.9862C66.3769 19.0459 68.67 21.3899 70.4416 23.1961C72.2132 25.0104 74.0922 26.921 74.6137 27.4508C75.1428 27.9806 75.9328 28.7914 76.3852 29.257C77.3592 30.2685 79.6983 32.6607 83.0575 36.0805C84.4226 37.4693 85.8874 38.9704 86.3169 39.4119C86.7463 39.8535 87.5439 40.6643 88.0884 41.2182C88.633 41.7721 90.1668 43.3375 91.5012 44.7102C92.8357 46.0749 94.3542 47.6322 94.8757 48.1621C95.3972 48.6839 96.862 50.185 98.1351 51.4935C99.4005 52.794 100.888 54.3112 101.433 54.8651C101.977 55.419 103.358 56.8239 104.493 57.9959L106.564 60.1232L106.602 73.0798L106.64 86.0364L109.018 87.7142C110.329 88.6374 111.457 89.4401 111.533 89.5043C111.602 89.5686 111.694 89.6248 111.725 89.6248C111.763 89.6248 111.855 89.697 111.947 89.7773C112.032 89.8656 113.22 90.7165 114.586 91.6798C115.951 92.6431 117.208 93.5342 117.369 93.6546C117.531 93.775 117.699 93.8794 117.738 93.8794C117.768 93.8794 117.799 86.2532 117.799 76.9411V60.0028H118.896H120L113.895 53.6289C110.536 50.1288 104.968 44.3168 101.525 40.7204L95.2515 34.1779V20.1938V6.2177H93.756H92.2605V18.5401C92.2605 28.2535 92.2375 30.8625 92.1685 30.8625C92.0611 30.8625 91.0027 29.7627 74.2992 12.3348C67.8571 5.61563 62.5423 0.116705 62.481 0.116705C62.4196 0.116705 62.2049 0.269229 61.9978 0.453865Z" fill="black"/>
<path d="M76.531 84.6796C76.508 84.7117 76.0401 84.7679 75.4956 84.808C73.9081 84.9445 72.704 85.1131 71.0935 85.4502C70.8634 85.4984 70.5337 85.5546 70.3649 85.5867C70.1962 85.6108 70.0275 85.6589 69.9815 85.6991C69.9431 85.7392 69.8281 85.7713 69.7207 85.7713C69.621 85.7713 69.4293 85.8034 69.2989 85.8436C69.1685 85.8837 68.9231 85.956 68.7544 86.0041C68.3403 86.1085 67.4123 86.3895 66.7604 86.6062C66.469 86.7106 66.0702 86.839 65.8785 86.8952C65.6867 86.9514 65.5027 87.0317 65.4566 87.0718C65.4183 87.1039 65.3186 87.136 65.2266 87.136C65.1345 87.136 65.0348 87.1681 64.9965 87.2002C64.9505 87.2324 64.7818 87.3126 64.613 87.3688C64.4443 87.425 64.2219 87.5053 64.1145 87.5535C64.0072 87.6016 63.8538 87.6659 63.7694 87.698C62.8108 88.0833 60.8475 89.0466 59.8965 89.5925C58.9148 90.1544 58.7154 90.2829 58.5007 90.4354C58.3933 90.5237 58.2783 90.5879 58.2553 90.5879C58.0865 90.5879 54.8962 92.948 54.1829 93.6063C54.0602 93.7187 53.7841 93.9595 53.5694 94.1441C53.1322 94.5295 51.5524 96.127 50.9695 96.7612C50.3406 97.4515 50.2946 97.5077 49.8498 98.0536C49.6197 98.3426 49.3897 98.6236 49.3283 98.6798C49.2746 98.744 49.1366 98.9206 49.0215 99.0811C48.9065 99.2497 48.7991 99.3942 48.7761 99.4183C48.6918 99.4986 47.6488 101 47.1503 101.746C46.5521 102.645 45.8618 103.817 45.8618 103.922C45.8618 103.962 45.8388 103.994 45.8081 103.994C45.7698 103.994 45.7084 104.074 45.6624 104.179C45.5704 104.371 45.279 104.925 44.9109 105.6C44.443 106.434 43.0166 109.549 42.6408 110.537C42.6101 110.625 42.5257 110.826 42.4644 110.978C42.3954 111.131 42.288 111.42 42.219 111.62C42.1499 111.821 42.0579 112.062 42.0196 112.158C41.9812 112.263 41.9199 112.423 41.8815 112.519C41.8432 112.624 41.7358 112.921 41.6438 113.186C41.5517 113.451 41.4444 113.74 41.4137 113.828C41.291 114.133 40.8615 115.433 40.2173 117.48C39.8645 118.604 39.5347 119.592 39.4964 119.664C39.32 119.993 39.4504 119.865 39.9335 119.23C42.1039 116.413 45.0029 113.298 47.8942 110.689C48.2316 110.384 48.5461 110.095 48.5921 110.055C48.6458 110.007 48.8145 109.862 48.9755 109.718C49.1443 109.581 49.3513 109.405 49.4357 109.316C49.5277 109.236 49.7118 109.084 49.8498 108.971C49.9955 108.859 50.1949 108.698 50.3023 108.602C50.4097 108.514 50.8161 108.184 51.1919 107.887C51.5754 107.582 52.0969 107.157 52.3576 106.948C52.6184 106.739 52.8715 106.563 52.9098 106.563C52.9482 106.563 52.9942 106.531 53.0095 106.499C53.0249 106.459 53.3086 106.234 53.6461 106.001C53.9835 105.768 54.2749 105.543 54.2826 105.503C54.298 105.471 54.3593 105.439 54.4207 105.439C54.482 105.439 54.528 105.399 54.528 105.359C54.528 105.311 54.5817 105.278 54.6431 105.278C54.7044 105.278 54.7581 105.238 54.7581 105.198C54.7581 105.15 54.8041 105.118 54.8578 105.118C54.9038 105.118 55.0342 105.046 55.1416 104.957C55.387 104.757 57.588 103.272 57.6417 103.272C57.6647 103.272 57.7798 103.207 57.8871 103.119C58.0022 103.039 58.2246 102.894 58.3856 102.798C58.539 102.71 58.7998 102.549 58.9608 102.453C59.2599 102.276 59.6817 102.035 60.51 101.57C61.6297 100.944 63.8615 99.7876 64.8431 99.338C65.0118 99.2577 65.3109 99.1213 65.5103 99.0249C65.7097 98.9286 65.8938 98.8564 65.9168 98.8564C65.9398 98.8564 66.1239 98.7841 66.3233 98.6878C66.7451 98.4871 67.0058 98.3747 67.2206 98.2944C67.3049 98.2623 67.466 98.1981 67.5887 98.1419C68.0872 97.9252 68.3096 97.8369 69.5213 97.3793C70.0735 97.1706 72.2592 96.424 72.6657 96.2956C72.7961 96.2634 73.0492 96.1832 73.2409 96.127C73.4326 96.0708 73.6627 95.9985 73.7624 95.9584C73.8621 95.9183 74.0231 95.8861 74.1228 95.8861C74.2225 95.8861 74.3299 95.846 74.3529 95.8059C74.3759 95.7577 74.514 95.7256 74.6597 95.7256C74.8054 95.7256 74.9358 95.6935 74.9588 95.6533C74.9818 95.6132 75.1352 95.565 75.2886 95.541C75.4496 95.5169 75.7334 95.4607 75.9251 95.4045C76.1168 95.3563 76.4159 95.2841 76.6 95.2359C77.6967 94.979 77.9268 94.9389 78.8394 94.7623C79.1155 94.7141 79.5143 94.6338 79.7214 94.5937C80.2812 94.4893 81.0481 94.3689 82.8274 94.1201C85.3352 93.7668 88.5563 93.6063 91.8387 93.6705C94.2622 93.7187 94.799 93.7588 97.3605 94.0478C99.1475 94.2565 99.6536 94.3208 100.39 94.4412C100.704 94.4893 101.157 94.5616 101.387 94.6017C101.939 94.69 103.066 94.8987 103.956 95.0914C104.171 95.1315 104.462 95.1877 104.608 95.2118C104.754 95.2359 104.945 95.2841 105.03 95.3242C105.114 95.3643 105.306 95.4125 105.452 95.4366C105.597 95.4527 105.873 95.5169 106.065 95.565C106.257 95.6132 106.548 95.6855 106.717 95.7256C106.886 95.7657 107.162 95.8299 107.33 95.8781C107.499 95.9263 107.775 95.9905 107.944 96.0387C108.113 96.0788 108.389 96.1591 108.558 96.2072C108.726 96.2554 108.987 96.3277 109.133 96.3678C109.386 96.432 109.509 96.4722 110.268 96.6969C110.935 96.8976 110.943 96.8735 110.321 96.3598C109.984 96.0788 109.509 95.6935 109.271 95.5008C109.025 95.3162 108.642 95.0192 108.427 94.8506C107.99 94.5134 105.536 92.8276 105.03 92.5226C104.723 92.3299 104.455 92.1694 103.956 91.8723C103.81 91.784 103.557 91.6315 103.404 91.5352C102.652 91.0856 100.106 89.729 99.2395 89.3276C98.1121 88.7897 97.4065 88.4766 97.0538 88.3402C96.9694 88.3081 96.816 88.2438 96.7086 88.1957C96.6013 88.1555 96.3098 88.0351 96.0568 87.9388C95.8037 87.8425 95.5276 87.7301 95.4432 87.698C95.3589 87.6578 95.0674 87.5535 94.7913 87.4571C94.5153 87.3608 94.2238 87.2564 94.1395 87.2243C94.0551 87.1842 93.7253 87.0718 93.4109 86.9755C93.0965 86.8711 92.644 86.7266 92.4139 86.6463C91.647 86.3895 89.8907 85.9078 89.0778 85.7312C88.9551 85.7071 88.6943 85.6429 88.5026 85.6027C87.2602 85.3138 85.1128 84.9766 83.4026 84.8C82.536 84.7117 76.6 84.6073 76.531 84.6796Z" fill="black"/>
</svg>
