<?xml version="1.0" encoding="UTF-8"?> <svg xmlns="http://www.w3.org/2000/svg" width="32" height="32" viewBox="0 0 32 32" fill="none"><path d="M15.6818 0C24.3429 0 31.3636 7.02075 31.3636 15.6818C31.3636 24.3429 24.3429 31.3636 15.6818 31.3636C12.9105 31.3684 10.1878 30.635 7.79388 29.2387L0.00629696 31.3636L2.12648 23.5729C0.729163 21.1782 -0.00483255 18.4544 2.39441e-05 15.6818C2.39441e-05 7.02075 7.02077 0 15.6818 0ZM10.3375 8.31136L10.0238 8.3239C9.82105 8.33788 9.62293 8.39114 9.44047 8.48072C9.27044 8.57718 9.11517 8.6976 8.97943 8.83827C8.79125 9.01547 8.68461 9.16915 8.57013 9.31813C7.9901 10.0723 7.67779 10.9981 7.68254 11.9495C7.68568 12.7179 7.8864 13.466 8.20004 14.1654C8.84143 15.5799 9.89681 17.0775 11.2894 18.4653C11.6249 18.7993 11.9543 19.1349 12.3087 19.447C14.0391 20.9703 16.101 22.069 18.3305 22.6555L19.2212 22.7919C19.5113 22.8076 19.8014 22.7857 20.0931 22.7716C20.5498 22.7475 20.9956 22.6238 21.3994 22.4093C21.6046 22.3032 21.805 22.1881 22 22.0643C22 22.0643 22.0664 22.0193 22.1961 21.9232C22.4078 21.7663 22.5379 21.655 22.7136 21.4715C22.8453 21.3356 22.9551 21.1778 23.0429 20.9979C23.1652 20.7423 23.2875 20.2546 23.3377 19.8485C23.3753 19.538 23.3643 19.3686 23.3596 19.2635C23.3534 19.0957 23.2138 18.9217 23.0617 18.848L22.149 18.4387C22.149 18.4387 20.7847 17.8443 19.9504 17.4648C19.8631 17.4268 19.7696 17.405 19.6744 17.4005C19.5671 17.3893 19.4586 17.4013 19.3564 17.4356C19.2541 17.47 19.1604 17.526 19.0816 17.5997C19.0738 17.5966 18.9687 17.6859 17.8349 19.0597C17.7699 19.1471 17.6802 19.2132 17.5775 19.2495C17.4747 19.2858 17.3634 19.2907 17.2579 19.2635C17.1556 19.2363 17.0555 19.2017 16.9583 19.16C16.7639 19.0785 16.6964 19.0471 16.5631 18.9907C15.6628 18.5985 14.8294 18.0678 14.0933 17.4178C13.8957 17.2453 13.7122 17.0571 13.524 16.8752C12.9071 16.2843 12.3694 15.6159 11.9245 14.8867L11.8319 14.7378C11.7665 14.6371 11.7128 14.5292 11.672 14.4163C11.6124 14.1858 11.7677 14.0007 11.7677 14.0007C11.7677 14.0007 12.1487 13.5836 12.3259 13.3578C12.4984 13.1382 12.6443 12.9249 12.7384 12.7728C12.9234 12.4749 12.9814 12.1691 12.8842 11.9323C12.4451 10.8597 11.9914 9.79277 11.523 8.73163C11.4305 8.52149 11.1561 8.37095 10.9067 8.34115C10.822 8.3307 10.7374 8.32233 10.6527 8.31606C10.4421 8.30398 10.231 8.30608 10.0207 8.32234L10.3375 8.31136Z" fill="#323232" fill-opacity="0.9"></path></svg> 